<svg width="24" height="25" viewBox="0 0 24 25" fill="none" xmlns="http://www.w3.org/2000/svg">
<g opacity="0.2">
<g clip-path="url(#clip0_2_1748)">
<path d="M17.8822 20.0163C16.1234 21.1319 14.0829 21.7226 12.0002 21.7193C6.60815 21.7193 2.12215 17.8393 1.18115 12.7193C1.61118 10.39 2.78278 8.2622 4.52115 6.6533L1.39215 3.5273L2.80715 2.1123L22.6062 21.9123L21.1912 23.3263L17.8812 20.0163H17.8822ZM5.93515 8.0693C4.57616 9.30489 3.62947 10.9281 3.22315 12.7193C3.53545 14.0858 4.16242 15.3604 5.05416 16.4419C5.94589 17.5233 7.07778 18.3817 8.3597 18.9486C9.64163 19.5155 11.0382 19.7754 12.4382 19.7074C13.8383 19.6395 15.2031 19.2457 16.4242 18.5573L14.3962 16.5293C13.5328 17.0731 12.5104 17.3074 11.4964 17.1937C10.4824 17.0801 9.53719 16.6252 8.81572 15.9037C8.09425 15.1823 7.63938 14.237 7.52571 13.2231C7.41205 12.2091 7.64634 11.1866 8.19015 10.3233L5.93515 8.0693ZM12.9142 15.0473L9.67215 11.8053C9.49422 12.2582 9.45234 12.7533 9.55166 13.2296C9.65098 13.706 9.88717 14.1431 10.2313 14.4872C10.5754 14.8313 11.0124 15.0675 11.4888 15.1668C11.9652 15.2661 12.4602 15.2242 12.9132 15.0463L12.9142 15.0473ZM20.8072 17.3113L19.3762 15.8813C20.0446 14.9286 20.5205 13.8545 20.7772 12.7193C20.5054 11.529 19.9944 10.4065 19.2753 9.4198C18.5562 8.43315 17.6439 7.60303 16.594 6.97991C15.5441 6.35679 14.3784 5.95367 13.1679 5.79507C11.9573 5.63646 10.7272 5.72568 9.55215 6.0573L7.97415 4.4793C9.22115 3.9893 10.5802 3.7193 12.0002 3.7193C17.3922 3.7193 21.8782 7.59931 22.8192 12.7193C22.5127 14.385 21.824 15.9569 20.8072 17.3113ZM11.7232 8.2273C12.3597 8.18797 12.9973 8.28437 13.5937 8.51012C14.1901 8.73587 14.7318 9.08582 15.1827 9.53676C15.6336 9.98769 15.9836 10.5293 16.2093 11.1258C16.4351 11.7222 16.5315 12.3598 16.4922 12.9963L11.7222 8.2273H11.7232Z" fill="black"/>
</g>
</g>
<defs>
<clipPath id="clip0_2_1748">
<rect width="24" height="24" fill="white" transform="translate(0 0.719299)"/>
</clipPath>
</defs>
</svg>
