<svg width="24" height="24" viewBox="0 0 24 24" fill="none" xmlns="http://www.w3.org/2000/svg">
<g clip-path="url(#clip0_9_8850)">
<path d="M21.179 12.794L21.192 12.808L12 22L2.80797 12.808L2.82097 12.794C1.75353 11.5496 1.19581 9.9477 1.25956 8.30941C1.32331 6.67111 2.00381 5.11742 3.16472 3.95968C4.32563 2.80194 5.88117 2.12567 7.51963 2.06639C9.15809 2.00711 10.7584 2.5692 12 3.64002C13.2415 2.5692 14.8418 2.00711 16.4803 2.06639C18.1188 2.12567 19.6743 2.80194 20.8352 3.95968C21.9961 5.11742 22.6766 6.67111 22.7404 8.30941C22.8041 9.9477 22.2464 11.5496 21.179 12.794Z" fill="#F0F0F0"/>
</g>
<defs>
<clipPath id="clip0_9_8850">
<rect width="24" height="24" fill="white"/>
</clipPath>
</defs>
</svg>
