<svg width="32" height="32" viewBox="0 0 32 32" fill="none" xmlns="http://www.w3.org/2000/svg">
<g clip-path="url(#clip0_13_9004)">
<path d="M16 29.3333C8.636 29.3333 2.66667 23.364 2.66667 16C2.66667 8.63596 8.636 2.66663 16 2.66663C23.364 2.66663 29.3333 8.63596 29.3333 16C29.3333 23.364 23.364 29.3333 16 29.3333ZM16 26.6666C18.829 26.6666 21.5421 25.5428 23.5425 23.5424C25.5429 21.542 26.6667 18.8289 26.6667 16C26.6667 13.171 25.5429 10.4579 23.5425 8.45749C21.5421 6.4571 18.829 5.33329 16 5.33329C13.171 5.33329 10.4579 6.4571 8.45753 8.45749C6.45714 10.4579 5.33333 13.171 5.33333 16C5.33333 18.8289 6.45714 21.542 8.45753 23.5424C10.4579 25.5428 13.171 26.6666 16 26.6666ZM9.33333 22.6666C9.33333 20.8985 10.0357 19.2028 11.286 17.9526C12.5362 16.7023 14.2319 16 16 16C17.7681 16 19.4638 16.7023 20.714 17.9526C21.9643 19.2028 22.6667 20.8985 22.6667 22.6666H20C20 21.6058 19.5786 20.5883 18.8284 19.8382C18.0783 19.0881 17.0609 18.6666 16 18.6666C14.9391 18.6666 13.9217 19.0881 13.1716 19.8382C12.4214 20.5883 12 21.6058 12 22.6666H9.33333ZM10.6667 14.6666C10.1362 14.6666 9.62753 14.4559 9.25245 14.0808C8.87738 13.7058 8.66667 13.1971 8.66667 12.6666C8.66667 12.1362 8.87738 11.6275 9.25245 11.2524C9.62753 10.8773 10.1362 10.6666 10.6667 10.6666C11.1971 10.6666 11.7058 10.8773 12.0809 11.2524C12.456 11.6275 12.6667 12.1362 12.6667 12.6666C12.6667 13.1971 12.456 13.7058 12.0809 14.0808C11.7058 14.4559 11.1971 14.6666 10.6667 14.6666ZM21.3333 14.6666C20.8029 14.6666 20.2942 14.4559 19.9191 14.0808C19.544 13.7058 19.3333 13.1971 19.3333 12.6666C19.3333 12.1362 19.544 11.6275 19.9191 11.2524C20.2942 10.8773 20.8029 10.6666 21.3333 10.6666C21.8638 10.6666 22.3725 10.8773 22.7475 11.2524C23.1226 11.6275 23.3333 12.1362 23.3333 12.6666C23.3333 13.1971 23.1226 13.7058 22.7475 14.0808C22.3725 14.4559 21.8638 14.6666 21.3333 14.6666Z" fill="#B0B0B0"/>
</g>
<defs>
<clipPath id="clip0_13_9004">
<rect width="32" height="32" fill="white"/>
</clipPath>
</defs>
</svg>
