<svg width="24" height="25" viewBox="0 0 24 25" fill="none" xmlns="http://www.w3.org/2000/svg">
<g opacity="0.2">
<g clip-path="url(#clip0_2_1727)">
<path d="M12.0002 3.7193C17.3922 3.7193 21.8782 7.5993 22.8192 12.7193C21.8792 17.8393 17.3922 21.7193 12.0002 21.7193C6.60815 21.7193 2.12215 17.8393 1.18115 12.7193C2.12115 7.5993 6.60815 3.7193 12.0002 3.7193ZM12.0002 19.7193C14.0396 19.7189 16.0185 19.0261 17.613 17.7545C19.2075 16.4828 20.3231 14.7076 20.7772 12.7193C20.3214 10.7326 19.2051 8.9593 17.6108 7.68933C16.0165 6.41935 14.0385 5.72783 12.0002 5.72783C9.96185 5.72783 7.98384 6.41935 6.38953 7.68933C4.79521 8.9593 3.67892 10.7326 3.22315 12.7193C3.67725 14.7076 4.79283 16.4828 6.3873 17.7545C7.98177 19.0261 9.96068 19.7189 12.0002 19.7193V19.7193ZM12.0002 17.2193C10.8067 17.2193 9.66209 16.7452 8.81817 15.9013C7.97426 15.0574 7.50015 13.9128 7.50015 12.7193C7.50015 11.5258 7.97426 10.3812 8.81817 9.53732C9.66209 8.69341 10.8067 8.2193 12.0002 8.2193C13.1936 8.2193 14.3382 8.69341 15.1821 9.53732C16.026 10.3812 16.5002 11.5258 16.5002 12.7193C16.5002 13.9128 16.026 15.0574 15.1821 15.9013C14.3382 16.7452 13.1936 17.2193 12.0002 17.2193ZM12.0002 15.2193C12.6632 15.2193 13.2991 14.9559 13.7679 14.4871C14.2368 14.0182 14.5002 13.3823 14.5002 12.7193C14.5002 12.0563 14.2368 11.4204 13.7679 10.9515C13.2991 10.4827 12.6632 10.2193 12.0002 10.2193C11.3371 10.2193 10.7012 10.4827 10.2324 10.9515C9.76354 11.4204 9.50015 12.0563 9.50015 12.7193C9.50015 13.3823 9.76354 14.0182 10.2324 14.4871C10.7012 14.9559 11.3371 15.2193 12.0002 15.2193Z" fill="black"/>
</g>
</g>
<defs>
<clipPath id="clip0_2_1727">
<rect width="24" height="24" fill="white" transform="translate(0 0.719299)"/>
</clipPath>
</defs>
</svg>
