<svg width="33" height="32" viewBox="0 0 33 32" fill="none" xmlns="http://www.w3.org/2000/svg">
<g clip-path="url(#clip0_13_9350)">
<path d="M24.5413 22.156L30.252 27.8653L28.3653 29.752L22.656 24.0413C20.5316 25.7443 17.8893 26.6705 15.1666 26.6666C8.54263 26.6666 3.16663 21.2906 3.16663 14.6666C3.16663 8.04263 8.54263 2.66663 15.1666 2.66663C21.7906 2.66663 27.1666 8.04263 27.1666 14.6666C27.1705 17.3893 26.2443 20.0316 24.5413 22.156ZM21.8666 21.1666C23.5588 19.4265 24.5038 17.0939 24.5 14.6666C24.5 9.50929 20.3226 5.33329 15.1666 5.33329C10.0093 5.33329 5.83329 9.50929 5.83329 14.6666C5.83329 19.8226 10.0093 24 15.1666 24C17.5939 24.0038 19.9265 23.0588 21.6666 21.3666L21.8666 21.1666ZM16.7373 9.56796C16.3441 9.74556 15.9999 10.0159 15.7342 10.3558C15.4685 10.6956 15.2892 11.0949 15.2117 11.5193C15.1343 11.9437 15.1609 12.3806 15.2894 12.7924C15.4179 13.2042 15.6444 13.5788 15.9494 13.8838C16.2545 14.1889 16.629 14.4153 17.0408 14.5438C17.4527 14.6723 17.8895 14.699 18.3139 14.6215C18.7383 14.544 19.1376 14.3647 19.4775 14.099C19.8174 13.8333 20.0877 13.4891 20.2653 13.096C20.6157 14.2341 20.5751 15.4568 20.1499 16.5692C19.7248 17.6816 18.9396 18.6197 17.9194 19.2341C16.8992 19.8484 15.7027 20.1037 14.5207 19.9591C13.3386 19.8145 12.2389 19.2785 11.3968 18.4364C10.5547 17.5944 10.0187 16.4947 9.87415 15.3126C9.7296 14.1305 9.98482 12.9341 10.5992 11.9139C11.2135 10.8937 12.1516 10.1085 13.264 9.68332C14.3764 9.25817 15.5991 9.21756 16.7373 9.56796Z" fill="#B0B0B0"/>
</g>
<defs>
<clipPath id="clip0_13_9350">
<rect width="32" height="32" fill="white" transform="translate(0.5)"/>
</clipPath>
</defs>
</svg>
