<svg width="285" height="328" viewBox="0 0 285 328" fill="none" xmlns="http://www.w3.org/2000/svg">
<path d="M140.3 23.6941L139.858 30.0079L122.499 28.6976L124.503 0L141.666 1.29505L141.225 7.60785L130.375 6.78972L130.043 11.5434L139.907 12.2885L139.471 18.5191L129.608 17.775L129.253 22.8586L140.3 23.6941Z" fill="white"/>
<path d="M211.844 44.8279C207.6 51.67 199.358 53.7069 192.819 49.4846L183.333 43.3594L198.347 19.1716L207.832 25.2968C214.373 29.518 216.091 37.9859 211.844 44.8279ZM206.627 41.4595C209.202 37.312 208.257 33.0233 204.53 30.6162L200.465 27.9913L192.056 41.5373L196.122 44.1621C199.85 46.5704 204.055 45.6061 206.627 41.4595Z" fill="white"/>
<path d="M242.445 85.2549L259.333 75.8556L262.492 81.5782L246.105 90.6995C244.217 91.7505 243.109 93.5367 244.787 96.5774C246.464 99.6182 248.563 99.6203 250.451 98.5683L266.839 89.447L270 95.1696L253.112 104.569C247.768 107.542 242.27 105.179 239.228 99.6705C236.186 94.1625 237.101 88.2292 242.445 85.2549Z" fill="white"/>
<path d="M270.596 150.878C278.612 150.742 284.861 156.753 284.998 165.184C285.082 170.257 282.704 174.776 278.892 177.278L275.688 171.817C277.77 170.544 278.977 168.125 278.93 165.289C278.848 160.335 275.565 157.194 270.7 157.279C265.837 157.362 262.659 160.614 262.74 165.569C262.787 168.406 264.072 170.82 266.194 171.983L263.171 177.549C259.279 175.217 256.753 170.786 256.669 165.672C256.531 157.244 262.579 151.014 270.596 150.878Z" fill="white"/>
<path d="M241.108 237.395L246.043 228.493L242.919 225.218L246.24 219.227L265.834 240.582L261.962 247.568L233.334 242.506L236.656 236.515L241.108 237.395ZM247.186 238.581L257.595 240.622L250.299 232.966L247.186 238.581Z" fill="white"/>
<path d="M201.384 301.665L207.212 297.564L195.001 279.552L200.183 275.905L212.394 293.919L218.224 289.818L221.668 294.897L204.83 306.747L201.384 301.665Z" fill="white"/>
<path d="M146.812 327.584L141.667 300.367L148.189 299.244L153.334 326.461L146.812 327.584Z" fill="white"/>
<path d="M91.9197 314.247C89.6954 322.393 81.9035 326.775 74.402 324.475C66.8986 322.176 62.5218 314.058 64.7481 305.914C66.9734 297.768 74.7643 293.385 82.2668 295.687C89.7693 297.988 94.1461 306.1 91.9197 314.247ZM70.7197 307.745C69.3696 312.689 71.8329 317 76.0882 318.307C80.3426 319.612 84.598 317.358 85.949 312.416C87.2981 307.473 84.8359 303.161 80.5815 301.854C76.3271 300.55 72.0708 302.804 70.7197 307.745Z" fill="white"/>
<path d="M0 277.726L19.0458 257.569L22.526 260.807L20.0202 279.044L30.3594 268.099L35 272.421L15.9543 292.578L12.4731 289.34L14.9789 271.105L4.64064 282.046L0 277.726Z" fill="white"/>
<path d="M216.667 175.879C218.756 172.701 218.71 167.68 218.043 166.741C223.721 166.121 219.422 174.905 216.667 175.879Z" fill="white"/>
<path d="M140.541 154.392C139.852 153.011 137.583 152.227 137.921 149.907C137.93 149.834 137.846 149.748 137.795 149.674C137.321 148.978 136.873 149.028 136.392 149.762C135.223 151.554 134.02 153.324 132.816 155.083C129.503 159.912 117.134 175.888 112.863 176.418C112.02 176.522 111.667 175.867 111.61 175.143C111.378 172.426 114.062 165.558 118.155 160.297C114.231 167.418 113.6 171.736 114.421 172.715C117.329 161.85 126.934 151.604 134.909 144.649C135.074 144.478 135.217 144.338 135.214 144.188C135.189 141.854 131.823 139.283 128.086 139.437C128.589 137.792 127.212 136.657 126.144 136.703C125.095 138.7 119.486 147.356 116.43 150.749C108.358 159.827 96.679 169.182 84.1832 174.562C83.9395 174.688 86.4488 177.176 91.6299 174.722C91.5203 174.983 90.0915 176.273 88.7859 176.437C89.4994 177.09 92.2788 177.16 94.4857 176.431C99.4476 174.801 107.133 166.604 109.426 163.531C108.035 165.926 102.124 175.218 100.973 182.524C100.372 186.342 100.809 189.499 103.001 189.827C103.428 193.476 106.133 196.121 108.091 195.867C108.426 195.825 108.773 195.548 108.876 195.012C110.804 184.985 124.143 168.229 125.36 169.926C121.094 175.762 117.281 187.022 119.183 192.358C120.32 195.566 125.122 196.798 131.354 194.27C126.374 191.852 127.498 179.482 129.417 174.638C127.866 182.503 128.861 189.497 130.93 191.126L131.053 191.043C127.852 176.28 135.166 162.403 140.464 156.665C140.936 155.845 140.95 155.208 140.541 154.392Z" fill="white"/>
<path d="M72.2303 209.982C66.3836 211.068 63.4543 200.161 72.0736 196.5C74.3462 195.535 78.2865 195.517 78.3334 197.869C67.724 200.141 67.8707 209.205 72.2303 209.982Z" fill="white"/>
<path d="M90.8339 101.69C51.7386 111.045 11.3557 145.006 32.4754 153.37C26.2999 143.221 43.0214 117.828 90.8339 101.69Z" fill="white"/>
<path d="M59.0781 224.19C61.175 223.83 61.3127 221.971 59.9179 220.816C56.9498 218.355 55.7438 214.173 57.0896 211.722C55.2629 213.076 53.3642 216.731 54.5191 220.344C55.2379 222.598 57.2148 224.51 59.0781 224.19Z" fill="white"/>
<path d="M106.606 134.132C102.793 139.963 87.5234 148.71 72.4411 148.387C74.797 152.805 80.2214 156.89 90.5598 155.124C112.302 151.405 138.443 123.473 136.571 104.368C136.49 104.368 136.408 104.368 136.328 104.368C135.757 110.645 131.69 119.65 127.884 122.761C130.152 119.894 134.375 112.103 134.275 103.944C134.035 83.793 107.44 78.1914 76.6381 91.1771C76.5145 91.2298 94.2499 86.2418 102.035 87.2334C54.9299 94.5658 17.6421 129.262 16.6927 152.505C15.0241 193.399 93.652 172.729 91.0919 197.884C95.0288 185.555 71.8861 178.415 69.2084 176.628C69.4993 176.501 69.7075 176.504 69.8996 176.544C76.5054 177.861 92.5332 184.923 92.8979 194.22C93.5206 210.115 71.4497 213.69 67.0955 210.44C67.739 212.916 72.968 216.042 78.6434 214.657C76.0781 216.03 65.1887 216.069 64.6578 207.778C64.3368 202.776 66.7996 199.541 66.7996 199.541C66.3153 199.581 65.2444 201.109 64.9058 201.765C64.6736 202.207 64.4494 202.56 63.8377 202.52C63.5729 202.505 63.1455 202.72 63.0159 202.972C58.533 211.584 64.8361 221.74 77.0306 220.837C84.9932 220.25 90.3486 216.531 92.5304 214.18C91.3528 214.98 89.1403 216.37 87.4357 216.611C87.4098 216.545 87.383 216.477 87.3551 216.411C93.0792 213.085 97.8182 208.17 98.645 201.539C103.06 166.276 28.9709 170.448 25.4812 149.581C20.819 121.712 108.104 84.1969 128.488 101.973C126.181 90.4978 95.777 95.5912 95.769 95.5067C110.638 90.5724 130.669 91.4974 131.136 103.479C131.514 113.068 112.778 136.746 76.9558 144.505C84.1832 146.889 99.6402 140.304 106.606 134.132Z" fill="white"/>
<path d="M214.584 164.348C213.025 160.389 196.475 162.002 186.711 166.263C186.501 165.784 186.279 165.33 186.039 164.917C188.818 157.751 197.257 144.662 206.29 135.74C207.85 134.201 209.426 132.788 210.993 131.548C211.178 128.878 204.153 125.409 199.517 129.213C193.858 135.3 188.045 147.156 185.472 152.774L184.935 152.792C186.124 146.503 192.428 135.042 196.279 131.294C191.239 131.474 180.65 152.705 174.95 172.229H174.938C168.927 174.797 157.73 181.658 153.903 185.771C153.688 186.002 153.411 185.156 153.392 184.854C152.741 174.484 164.91 166.972 174.57 160.104C175.791 159.234 174.958 156.681 174.446 156.237C170.808 161.667 160.863 167.364 156.309 173.601C159.611 167.132 173.965 157.894 173.742 154.298C173.42 149.098 166.898 143.729 164.105 142.3C164.614 141.412 165.88 138.948 165.457 136.322C164.973 133.316 161.883 131.995 159.271 132.25C159.741 134.01 159.228 136.758 158.75 138.211C153.666 134.734 145.763 134.204 145.691 138.649C149.207 136.098 156.494 137.951 159.707 140.164C145.524 135.505 141.889 143.267 143.718 147.377C143.718 147.377 149.627 147.196 154.369 148.971C153.302 152.035 146.235 166.277 138.155 175.132C138.727 174.947 139.277 174.829 139.77 174.604C140.747 174.168 149.709 161.998 152.189 158.214C152.239 158.452 150.2 162.747 146.435 168.606C150.618 163.735 157.366 153.109 159.055 150.386C159.055 150.386 164.004 152.349 164.223 155.854C164.587 161.789 138.877 176.058 139.262 187.031C139.331 189.047 140.368 191.985 142.449 193.894C141.606 192.184 141.191 189.944 141.463 187.434C141.841 183.95 143.551 179.952 147.311 176.151C140.392 184.845 142.836 192.717 144.319 194.873C121.735 196.322 103.447 204.446 103.36 217.067C103.413 217.346 103.177 217.727 103.003 218.002C100.73 221.64 101.721 226.175 103.271 226.724C113.909 213.72 132.148 203.102 148.159 200.054C148.159 199.752 146.868 199.8 144.769 200.136C137.019 201.241 127.206 204.074 119.301 208.884C119.087 202.186 147.803 195.398 165.886 197.996C166.181 195.337 160.586 194.307 154.364 194.203C157.322 182.314 175.858 172.465 182.992 170C175.953 173.031 164.643 180.092 159.603 187.783C164.365 183.479 170.704 178.831 173.387 177.573C166.776 205.269 173.782 216.536 178.783 216.357C182.26 216.238 185.482 212.596 187.494 204.255C185.915 207.999 183.905 210.521 181.999 210.589C177.267 210.756 176.642 203.659 176.642 203.659C179.662 211.451 188.351 205.386 189.302 191.481C189.366 190.519 189.428 189.535 189.474 188.508C189.679 183.986 189.485 178.397 188.677 173.508C195.445 171.411 206.404 171.263 209.363 173.574C210.094 169.45 202.571 168.48 190.385 171.174C198.636 168.467 210.301 167.512 211.072 171.487C211.462 173.501 210.312 176.476 209.433 177.623C209.009 178.174 210.411 177.754 210.781 177.274C212.821 174.629 216.175 168.378 214.584 164.348ZM181.464 201.254C177.705 201.48 178.338 186.737 182.847 174.958C183.264 174.775 183.739 174.609 184.253 174.452C185.032 183.521 183.582 193.221 182.087 197.483C184.236 197.407 186.596 187.934 186.46 178.937L186.904 178.924C188.114 193.245 183.829 201.168 181.464 201.254Z" fill="white"/>
</svg>
