<svg width="99" height="105" viewBox="0 0 99 105" fill="none" xmlns="http://www.w3.org/2000/svg">
<path d="M48.7975 7.56548L48.6563 9.58147L43.1138 9.16309L43.7536 0L49.2337 0.413508L49.0928 2.42918L45.6286 2.16795L45.5225 3.68578L48.6721 3.9237L48.5329 5.91311L45.3835 5.67552L45.2702 7.29872L48.7975 7.56548Z" fill="black"/>
<path d="M71.6417 14.3135C70.2864 16.4981 67.6547 17.1485 65.567 15.8003L62.5381 13.8446L67.3321 6.12146L70.3606 8.07722C72.449 9.42503 72.9977 12.1288 71.6417 14.3135ZM69.9759 13.2379C70.7979 11.9137 70.4964 10.5443 69.3062 9.7757L68.0081 8.93756L65.3234 13.2628L66.6217 14.1009C67.8119 14.8698 69.1545 14.5619 69.9759 13.2379Z" fill="black"/>
<path d="M81.4126 27.2218L86.8048 24.2206L87.8135 26.0478L82.581 28.9602C81.9781 29.2958 81.6243 29.8661 82.1602 30.837C82.6958 31.808 83.3657 31.8086 83.9687 31.4727L89.2012 28.5603L90.2107 30.3875L84.8184 33.3887C83.1121 34.3381 81.3566 33.5836 80.3852 31.8246C79.4139 30.0659 79.7062 28.1715 81.4126 27.2218Z" fill="black"/>
<path d="M90.4007 48.1749C92.9602 48.1315 94.9557 50.0509 94.9992 52.7428C95.0263 54.3628 94.267 55.8057 93.0497 56.6046L92.0266 54.8609C92.6915 54.4543 93.0767 53.6821 93.0617 52.7763C93.0357 51.1947 91.9874 50.1919 90.434 50.219C88.8812 50.2455 87.8665 51.2837 87.8923 52.8659C87.9075 53.7717 88.3176 54.5426 88.9952 54.9139L88.0299 56.6911C86.7874 55.9466 85.9809 54.5318 85.9539 52.8988C85.9097 50.2079 87.841 48.2186 90.4007 48.1749Z" fill="black"/>
<path d="M80.9857 75.8L82.5612 72.9574L81.564 71.9118L82.6243 69.9988L88.8806 76.8175L87.6442 79.0479L78.5034 77.4317L79.564 75.5187L80.9857 75.8ZM82.9264 76.1785L86.2498 76.8303L83.9204 74.3857L82.9264 76.1785Z" fill="black"/>
<path d="M68.3016 96.3212L70.1627 95.0117L66.2637 89.2606L67.9184 88.0962L71.8172 93.848L73.6789 92.5386L74.7783 94.1603L69.402 97.9438L68.3016 96.3212Z" fill="black"/>
<path d="M50.8766 104.597L49.2339 95.9067L51.3163 95.5481L52.959 104.239L50.8766 104.597Z" fill="black"/>
<path d="M33.3496 100.339C32.6394 102.94 30.1514 104.339 27.7562 103.604C25.3604 102.87 23.9629 100.278 24.6737 97.678C25.3843 95.0771 27.8719 93.6774 30.2674 94.4124C32.663 95.1471 34.0605 97.7371 33.3496 100.339ZM26.5805 98.2625C26.1494 99.8413 26.9359 101.218 28.2946 101.635C29.653 102.052 31.0118 101.332 31.4432 99.7539C31.8739 98.1758 31.0878 96.7988 29.7293 96.3815C28.3709 95.9652 27.0119 96.6847 26.5805 98.2625Z" fill="black"/>
<path d="M4 88.6775L10.0813 82.2415L11.1925 83.2754L10.3924 89.0986L13.6937 85.6038L15.1754 86.9837L9.09419 93.4198L7.98264 92.3859L8.78273 86.5634L5.48175 90.0568L4 88.6775Z" fill="black"/>
<path d="M73.1816 56.1579C73.8487 55.143 73.834 53.54 73.621 53.2402C75.4339 53.0423 74.0613 55.8468 73.1816 56.1579Z" fill="black"/>
<path d="M48.8748 49.2972C48.6545 48.8561 47.9301 48.6058 48.0379 47.865C48.0411 47.8418 48.0142 47.8144 47.998 47.7908C47.8464 47.5685 47.7036 47.5844 47.5499 47.8188C47.1767 48.3908 46.7924 48.9561 46.408 49.5176C45.3502 51.0597 41.4009 56.1608 40.0372 56.3299C39.7678 56.3631 39.6554 56.1541 39.6369 55.9229C39.5628 55.0554 40.42 52.8623 41.7269 51.1826C40.4741 53.4563 40.2725 54.835 40.5347 55.1477C41.4632 51.6785 44.5299 48.4071 47.0764 46.1863C47.1289 46.1315 47.1748 46.087 47.1739 46.0389C47.1658 45.2936 46.0911 44.4729 44.8977 44.5219C45.0583 43.9968 44.6187 43.6343 44.2778 43.649C43.9427 44.2866 42.1518 47.0507 41.1759 48.1338C38.5988 51.0326 34.8696 54.0196 30.8797 55.7375C30.8019 55.7777 31.6031 56.572 33.2574 55.7885C33.2224 55.8719 32.7662 56.2837 32.3493 56.336C32.5771 56.5446 33.4646 56.5669 34.1693 56.3341C35.7536 55.8137 38.2076 53.1964 38.9398 52.2152C38.4954 52.9798 36.6083 55.9468 36.2408 58.2796C36.0489 59.4988 36.1883 60.5068 36.8883 60.6116C37.0245 61.7766 37.8882 62.6212 38.5135 62.5399C38.6204 62.5266 38.7313 62.438 38.7641 62.267C39.3798 59.0653 43.6387 53.7152 44.0275 54.2572C42.6653 56.1207 41.4478 59.716 42.055 61.4195C42.4181 62.4441 43.9515 62.8374 45.9412 62.0301C44.3512 61.258 44.7099 57.3083 45.3227 55.7618C44.8274 58.2729 45.1452 60.5062 45.8058 61.0262L45.8452 60.9998C44.823 56.286 47.1586 51.8549 48.8501 50.0231C49.0007 49.7609 49.0051 49.5578 48.8748 49.2972Z" fill="black"/>
<path d="M27.063 67.047C25.1962 67.3935 24.2609 63.9112 27.013 62.742C27.7386 62.434 28.9968 62.4283 29.0118 63.1792C25.6242 63.9046 25.6711 66.7987 27.063 67.047Z" fill="black"/>
<path d="M33.003 32.4695C20.5199 35.4566 7.6257 46.3001 14.3692 48.9709C12.3974 45.7303 17.7365 37.6223 33.003 32.4695Z" fill="black"/>
<path d="M22.8637 71.5834C23.5332 71.4687 23.5772 70.8751 23.1318 70.5062C22.1841 69.7203 21.7991 68.385 22.2288 67.6024C21.6455 68.0349 21.0392 69.202 21.408 70.3554C21.6375 71.0751 22.2687 71.6859 22.8637 71.5834Z" fill="black"/>
<path d="M38.0392 42.8281C36.8219 44.69 31.9463 47.4828 27.1305 47.3799C27.8828 48.7904 29.6148 50.0947 32.9158 49.5309C39.858 48.3435 48.2049 39.4249 47.6072 33.3245C47.5811 33.3245 47.555 33.3245 47.5296 33.3245C47.3473 35.3288 46.0486 38.2041 44.8335 39.1975C45.5575 38.2819 46.9058 35.7943 46.874 33.1892C46.7973 26.755 38.3058 24.9664 28.4706 29.1127C28.4311 29.1296 34.094 27.5369 36.5799 27.8535C21.5392 30.1947 9.63327 41.2732 9.33014 48.6947C8.79735 61.752 33.9031 55.1521 33.0857 63.184C34.3428 59.2473 26.9533 56.9677 26.0983 56.397C26.1912 56.3564 26.2577 56.3577 26.319 56.3703C28.4283 56.7908 33.5459 59.0457 33.6623 62.0141C33.8612 67.0893 26.814 68.231 25.4237 67.1931C25.6292 67.9839 27.2988 68.9821 29.1109 68.5397C28.2918 68.978 24.8148 68.9906 24.6453 66.3433C24.5428 64.7462 25.3292 63.7131 25.3292 63.7131C25.1746 63.7258 24.8326 64.2139 24.7245 64.4232C24.6504 64.5646 24.5788 64.677 24.3835 64.6643C24.2989 64.6595 24.1625 64.7281 24.1211 64.8088C22.6897 67.5584 24.7023 70.8012 28.5959 70.5128C31.1384 70.3255 32.8484 69.138 33.545 68.3873C33.169 68.6429 32.4625 69.0865 31.9183 69.1638C31.91 69.1424 31.9014 69.1208 31.8926 69.0999C33.7202 68.0376 35.2334 66.4684 35.4974 64.3511C36.9071 53.0916 13.2505 54.4239 12.1363 47.761C10.6477 38.8624 38.5176 26.884 45.0263 32.5598C44.2896 28.8958 34.5816 30.5222 34.5791 30.4952C39.3268 28.9197 45.7225 29.215 45.8717 33.0406C45.9923 36.1024 40.0101 43.663 28.5721 46.1401C30.8797 46.9014 35.8151 44.799 38.0392 42.8281Z" fill="black"/>
<path d="M72.5166 52.4762C72.0186 51.212 66.7344 51.7272 63.6167 53.0877C63.5494 52.9346 63.4787 52.7897 63.4019 52.6579C64.2894 50.3698 66.984 46.1905 69.8682 43.3416C70.3664 42.8503 70.8694 42.3992 71.3698 42.0032C71.4289 41.1505 69.1857 40.0429 67.7057 41.2577C65.8986 43.2012 64.0426 46.9868 63.2209 48.7806L63.0496 48.7864C63.4293 46.7782 65.4421 43.1188 66.6716 41.9221C65.0624 41.9795 61.6815 48.7585 59.8614 54.9926H59.8577C57.9382 55.8123 54.3631 58.0031 53.1409 59.3164C53.0724 59.3903 52.9841 59.1202 52.9781 59.0238C52.77 55.7124 56.6557 53.314 59.7401 51.121C60.1299 50.8434 59.864 50.0281 59.7005 49.8863C58.539 51.62 55.3634 53.439 53.9092 55.4306C54.9635 53.3651 59.5468 50.4154 59.4757 49.2672C59.3729 47.6068 57.2903 45.8925 56.3985 45.4363C56.5611 45.1526 56.9653 44.3658 56.8302 43.5274C56.6758 42.5675 55.6891 42.1459 54.8551 42.2274C55.005 42.7891 54.8413 43.6665 54.6888 44.1306C53.0655 43.0205 50.5419 42.8512 50.519 44.2704C51.6418 43.456 53.9683 44.0476 54.9943 44.7542C50.4658 43.2665 49.3049 45.7451 49.889 47.0571C49.889 47.0571 51.7757 46.9994 53.29 47.5662C52.9492 48.5445 50.6928 53.0922 48.1129 55.9195C48.2955 55.8605 48.471 55.8228 48.6285 55.7508C48.9403 55.6116 51.8021 51.7259 52.594 50.5175C52.6097 50.5936 51.9586 51.9649 50.7566 53.8355C52.0923 52.2803 54.2468 48.8875 54.7863 48.018C54.7863 48.018 56.3665 48.645 56.4363 49.764C56.5526 51.659 48.3433 56.2152 48.4662 59.7187C48.4882 60.3625 48.8193 61.3005 49.4838 61.9101C49.2147 61.3642 49.0821 60.6487 49.1691 59.8473C49.2898 58.735 49.8359 57.4585 51.0364 56.2447C48.8271 59.0206 49.6073 61.5341 50.081 62.2227C42.8698 62.6854 37.0305 65.2794 37.0028 69.3091C37.0198 69.3982 36.9443 69.5199 36.8887 69.6077C36.1632 70.7692 36.4794 72.2173 36.9745 72.3925C40.3711 68.2405 46.1948 64.8502 51.307 63.8771C51.307 63.7807 50.8949 63.7959 50.2247 63.903C47.7501 64.2559 44.6167 65.1605 42.0928 66.6964C42.0243 64.5577 51.1932 62.3903 56.9672 63.2199C57.0615 62.3707 55.275 62.0419 53.2884 62.0087C54.2327 58.2126 60.1513 55.068 62.429 54.2809C60.1818 55.2487 56.5705 57.5032 54.961 59.959C56.4816 58.5848 58.5056 57.1005 59.3622 56.699C57.2514 65.5422 59.4883 69.1395 61.0852 69.0825C62.1955 69.0444 63.2244 67.8817 63.8666 65.2182C63.3624 66.4137 62.7208 67.2191 62.1122 67.2407C60.6011 67.294 60.4018 65.0281 60.4018 65.0281C61.3659 67.5162 64.1404 65.5793 64.444 61.1398C64.4644 60.8326 64.4843 60.5182 64.4988 60.1903C64.5645 58.7464 64.5025 56.962 64.2444 55.4008C66.4053 54.7313 69.9046 54.6841 70.8493 55.4221C71.0828 54.1053 68.6809 53.7955 64.7898 54.6556C67.4244 53.7914 71.1488 53.4865 71.3949 54.7555C71.5197 55.3986 71.1523 56.3487 70.8716 56.7148C70.7364 56.8907 71.184 56.7567 71.3022 56.6032C71.9536 55.7587 73.0245 53.7629 72.5166 52.4762ZM61.9412 64.26C60.741 64.3323 60.9431 59.6248 62.3828 55.864C62.5162 55.8053 62.6676 55.7524 62.8318 55.7023C63.0804 58.5981 62.6177 61.6951 62.1402 63.056C62.8264 63.0319 63.5799 60.0071 63.5365 57.1345L63.6783 57.1301C64.0646 61.7027 62.6966 64.2327 61.9412 64.26Z" fill="black"/>
</svg>
