<svg width="24" height="24" viewBox="0 0 24 24" fill="none" xmlns="http://www.w3.org/2000/svg">
<g clip-path="url(#clip0_5031_57)">
<path d="M11.9995 22C6.47651 22 1.99951 17.523 1.99951 12C1.99951 6.477 6.47651 2 11.9995 2C17.5225 2 21.9995 6.477 21.9995 12C21.9995 17.523 17.5225 22 11.9995 22ZM11.9995 20C14.1212 20 16.1561 19.1571 17.6564 17.6569C19.1567 16.1566 19.9995 14.1217 19.9995 12C19.9995 9.87827 19.1567 7.84344 17.6564 6.34315C16.1561 4.84285 14.1212 4 11.9995 4C9.87778 4 7.84295 4.84285 6.34266 6.34315C4.84237 7.84344 3.99951 9.87827 3.99951 12C3.99951 14.1217 4.84237 16.1566 6.34266 17.6569C7.84295 19.1571 9.87778 20 11.9995 20ZM7.99951 13H15.9995C15.9995 14.0609 15.5781 15.0783 14.8279 15.8284C14.0778 16.5786 13.0604 17 11.9995 17C10.9386 17 9.92123 16.5786 9.17108 15.8284C8.42094 15.0783 7.99951 14.0609 7.99951 13ZM7.99951 11C7.60169 11 7.22016 10.842 6.93885 10.5607C6.65755 10.2794 6.49951 9.89782 6.49951 9.5C6.49951 9.10218 6.65755 8.72064 6.93885 8.43934C7.22016 8.15804 7.60169 8 7.99951 8C8.39734 8 8.77887 8.15804 9.06017 8.43934C9.34148 8.72064 9.49951 9.10218 9.49951 9.5C9.49951 9.89782 9.34148 10.2794 9.06017 10.5607C8.77887 10.842 8.39734 11 7.99951 11ZM15.9995 11C15.6017 11 15.2202 10.842 14.9389 10.5607C14.6575 10.2794 14.4995 9.89782 14.4995 9.5C14.4995 9.10218 14.6575 8.72064 14.9389 8.43934C15.2202 8.15804 15.6017 8 15.9995 8C16.3973 8 16.7789 8.15804 17.0602 8.43934C17.3415 8.72064 17.4995 9.10218 17.4995 9.5C17.4995 9.89782 17.3415 10.2794 17.0602 10.5607C16.7789 10.842 16.3973 11 15.9995 11Z" fill="black"/>
</g>
<defs>
<clipPath id="clip0_5031_57">
<rect width="24" height="24" fill="white" transform="translate(-0.000488281)"/>
</clipPath>
</defs>
</svg>
